# xmcd
#
# Track frame offsets:
#	150
#	5222
#	10310
#	12972
#	15667
#	20615
#	25500
#	28195
#	30965
#	35932
#	40865
#	43600
#	46330
#	51247
#	54000
#	59012
#	64042
#	66825
#	69602
#	74617
#	79572
#	84587
#	89520
#	92252
#	97342
#	102367
#	107265
#	110000
#	114745
#	119507
#	124500
#	127177
#	132112
#	137017
#	139797
#	142572
#	147605
#	152617
#	155380
#	158127
#	163122
#	168025
#	170755
#	173430
#	178367
#	183330
#	185965
#	188590
#	193597
#	198617
#	201330
#	204080
#	209045
#	213965
#	216697
#	219402
#	224370
#	229330
#	232070
#	234845
#	239882
#	244830
#	247602
#
# Disc length: 3333 seconds
#
# Revision: 1
# Processed by: cddbd v1.5.1PL0 Copyright (c) Steve Scherf et al.
# Submitted via: audiograbber 1.82.00
#
DISCID=9f0d033f
DTITLE=TM Century - MegaMusic - 504 - Country
DYEAR=1900
DGENRE=
TTITLE0=8354-Steady - Full Mix
TTITLE1=8354-Steady - Rhythm Mix
TTITLE2=8354-Steady - Full Mix-Edit
TTITLE3=8354-Steady - Rhythm Mix-Edit
TTITLE4=8355-There's One Near You - Full Mix
TTITLE5=8355-There's One Near You - Rhythm Mix
TTITLE6=8355-There's One Near You - Full Mix-Edit
TTITLE7=8355-There's One Near You - Rhythm Mix-Edit
TTITLE8=8356-Rolling - Full Mix
TTITLE9=8356-Rolling - Rhythm Mix
TTITLE10=8356-Rolling - Full Mix-Edit
TTITLE11=8356-Rolling - Rhythm Mix-Edit
TTITLE12=8357-Rhythm and Electric Piano - Full Mix
TTITLE13=8357-Rhythm and Electric Piano - Full Mix-Edit
TTITLE14=8358-Optimistic - Full Mix
TTITLE15=8358-Optimistic - Rhythm Mix
TTITLE16=8358-Optimistic - Full Mix-Edit
TTITLE17=8358-Optimistic - Rhythm Mix-Edit
TTITLE18=8359-Back Yard BBQ - Full Mix
TTITLE19=8359-Back Yard BBQ - Rhythm Mix
TTITLE20=8360-Soda Fountain - Full Mix
TTITLE21=8360-Soda Fountain - Rhythm Mix
TTITLE22=8361-Front Porch Pickin' - Full Mix
TTITLE23=8362-Traditional - Full Mix
TTITLE24=8362-Traditional - Rhythm Mix
TTITLE25=8363-Catch Up - Full Mix
TTITLE26=8363-Catch Up - Full Mix-Edit
TTITLE27=8364-Talons - Full Mix
TTITLE28=8364-Talons - Rhythm Mix
TTITLE29=8365-Touch Of Bluegrass - Full Mix
TTITLE30=8365-Touch Of Bluegrass - Full Mix-Edit
TTITLE31=8366-City Limits - Full Mix
TTITLE32=8366-City Limits - Rhythm Mix
TTITLE33=8366-City Limits - Full Mix-Edit
TTITLE34=8366-City Limits - Rhythm Mix-Edit
TTITLE35=8367-Cajun Cookin' - Full Mix
TTITLE36=8367-Cajun Cookin' - Rhythm Mix
TTITLE37=8367-Cajun Cookin' - Full Mix-Edit
TTITLE38=8367-Cajun Cookin' - Rhythm Mix-Edit
TTITLE39=8368-Smoothie - Full Mix
TTITLE40=8368-Smoothie - Rhythm Mix
TTITLE41=8368-Smoothie - Full Mix-Edit
TTITLE42=8368-Smoothie - Rhythm Mix-Edit
TTITLE43=8369-Marathon - Full Mix
TTITLE44=8369-Marathon - Rhythm Mix
TTITLE45=8369-Marathon - Full Mix-Edit
TTITLE46=8369-Marathon - Rhythm Mix-Edit
TTITLE47=8370-Goin' Home - Full Mix
TTITLE48=8370-Goin' Home - Rhythm Mix
TTITLE49=8370-Goin' Home - Full Mix-Edit
TTITLE50=8370-Goin' Home - Rhythm Mix-Edit
TTITLE51=8371-Olympiad - Full Mix
TTITLE52=8371-Olympiad - Rhythm Mix
TTITLE53=8371-Olympiad - Full Mix-Edit
TTITLE54=8371-Olympiad - Rhythm Mix-Edit
TTITLE55=8372-Mile After Mile - Full Mix
TTITLE56=8372-Mile After Mile - Rhythm Mix
TTITLE57=8372-Mile After Mile - Full Mix-Edit
TTITLE58=8372-Mile After Mile - Rhythm Mix-Edit
TTITLE59=8373-Packing - Full Mix
TTITLE60=8373-Packing - Rhythm Mix
TTITLE61=8373-Packing - Full Mix-Edit
TTITLE62=8373-Packing - 
EXTD=
EXTT0=
EXTT1=
EXTT2=
EXTT3=
EXTT4=
EXTT5=
EXTT6=
EXTT7=
EXTT8=
EXTT9=
EXTT10=
EXTT11=
EXTT12=
EXTT13=
EXTT14=
EXTT15=
EXTT16=
EXTT17=
EXTT18=
EXTT19=
EXTT20=
EXTT21=
EXTT22=
EXTT23=
EXTT24=
EXTT25=
EXTT26=
EXTT27=
EXTT28=
EXTT29=
EXTT30=
EXTT31=
EXTT32=
EXTT33=
EXTT34=
EXTT35=
EXTT36=
EXTT37=
EXTT38=
EXTT39=
EXTT40=
EXTT41=
EXTT42=
EXTT43=
EXTT44=
EXTT45=
EXTT46=
EXTT47=
EXTT48=
EXTT49=
EXTT50=
EXTT51=
EXTT52=
EXTT53=
EXTT54=
EXTT55=
EXTT56=
EXTT57=
EXTT58=
EXTT59=
EXTT60=
EXTT61=
EXTT62=
PLAYORDER=
